<?xml version="1.0" encoding="utf-8"?>
<!-- Generator: Adobe Illustrator 25.2.1, SVG Export Plug-In . SVG Version: 6.00 Build 0)  -->
<svg version="1.1" id="Layer_1" xmlns="http://www.w3.org/2000/svg" xmlns:xlink="http://www.w3.org/1999/xlink" x="0px" y="0px"
	 viewBox="0 0 688.5 128.6" style="enable-background:new 0 0 688.5 128.6;" xml:space="preserve">
<style type="text/css">
	.st0{fill:#347362;}
	.st1{fill:#0F393B;}
	.st2{fill:#EF8451;}
</style>
<g>
	<path class="st0" d="M61,51l27-16.6c1.5-0.9,2.5-2.6,2.5-4.4V19.6c0-15.3-16.8-24.7-29.8-16.7L13,32.2C4.9,37.2,0,46,0,55.4v32
		c0,15.3,16.8,24.7,29.8,16.7l12.9-7.9c1.5-0.9,2.5-2.6,2.5-4.4V79.4C45.1,67.8,51.1,57,61,51z"/>
</g>
<g>
	<path class="st1" d="M242.3,79.1h35c4.1,0,5.1-1.5,5.1-5.7c0-8.2-3-16-8-21.4c-4.7-5.1-12-8.4-20.8-8.4c-17.3,0-29.6,13.1-29.6,31
		c0,18.4,12.9,31.2,30.5,31.2c8.7,0,18.7-3.1,23.7-8.7c1.3-1.5,2.2-3.5-0.2-6l-3.7-4.1c-2.1-2.4-3.7-1.5-5.7,0.1
		c-4,3-7.8,4.3-11.8,4.3C249.4,91.2,243.2,87,242.3,79.1z M253.1,57.7c3.2,0,5.7,1.2,7.7,3.3c1.5,1.7,2.6,4,3.1,6.9h-21.5
		C243.2,61.6,247.3,57.7,253.1,57.7z"/>
	<path class="st1" d="M342.5,44h-5.4c-3.2,0-5,2-5,5.4v1.3c-4.7-4.4-10.7-7.1-17.6-7.1c-16,0-27.5,13.6-27.5,31.1
		s11.7,31.1,27.5,31.1c7.4,0,13.3-3.2,17.6-8v1.1c0,3.4,1.8,5.4,5,5.4h5.4c3.2,0,5.1-2,5.1-5.4V49.4C347.6,46,345.7,44,342.5,44z
		 M317.6,88.3c-6.9,0-11.8-5.9-11.8-13.6s4.8-13.6,11.8-13.6c6.7,0,11.8,5.3,11.8,13.6C329.4,82.8,324.1,88.3,317.6,88.3z"/>
	<path class="st1" d="M429.9,43.6c-7.7,0-13.8,3.2-18.1,7.9c-4-5.1-9.8-7.9-17.1-7.9c-8.2,0-13.9,4.1-17.6,9.8
		c-2.1-7.1-7.9-9.8-14-9.8c-2.5,0-5.9,0.7-8.3,2s-2.9,2.8-2.2,5.9l1.5,7.8c0.7,3,2,3.4,3,3.3c1.1-0.1,2.5-1.1,3.5-1.1
		c0.8,0,1.2,0.6,1.2,1.7v35.6c0,3.4,1.8,5.4,5,5.4h9.1c3.2,0,5-2,5-5.4V70.9c0-6,3.4-9.9,8.6-9.9c5.3,0,8.4,3.9,8.4,9.9v27.9
		c0,3.4,1.8,5.4,5,5.4h9.1c3.2,0,5-2,5-5.4V70.9c0-6,3.5-9.9,8.6-9.9c5.3,0,8.4,3.9,8.4,9.9v27.9c0,3.4,1.8,5.4,5,5.4h9.1
		c3.2,0,5-2,5-5.4V69.4C453,53.7,443.5,43.6,429.9,43.6z"/>
	<path class="st1" d="M548.5,44.3c-2.4-4.6-5.2-5.8-9.8-3l-4.2,2.6c-4.8,3-4.5,5.8-2.3,9.8c2.1,3.9,4.4,10.4,4.4,19.3
		c0,11.3-4.1,16.3-9.8,16.3c-5.3,0-8.6-3.5-8.6-9.3V50c0-3.4-1.8-5.4-5-5.4h-7.3c-3.3,0-5.1,2.1-5.1,5.4v30c0,5.7-3.2,9.3-8.2,9.3
		c-5.1,0-8-3.4-8-9.3V61.2c0-11.5-5.2-17.6-15.3-17.6c-2.8,0-6.6,0.7-10.8,2.8c-2.4,1.2-2.9,2.2-2.2,5.1l1.5,7.8
		c0.7,2.8,1.8,3.4,2.9,3.3c1.2-0.1,2.5-1.1,3.6-1.1c0.7,0,1.2,0.6,1.2,1.7v15.6c0,19.7,12.1,26.9,26.8,26.9c7.4,0,13.1-2.8,17.2-7.1
		c4,4.7,9.8,7.1,17.2,7.1c18,0,28.8-12.9,28.9-33.8C555.6,59.8,552.4,51.3,548.5,44.3z"/>
	<path class="st1" d="M616.3,44h-5.4c-3.2,0-5,2-5,5.4v1.3c-4.7-4.4-10.7-7.1-17.6-7.1c-16,0-27.5,13.6-27.5,31.1
		s11.7,31.1,27.5,31.1c7.4,0,13.3-3.2,17.6-8v1.1c0,3.4,1.8,5.4,5,5.4h5.4c3.2,0,5.1-2,5.1-5.4V49.4C621.4,46,619.5,44,616.3,44z
		 M591.4,88.3c-6.9,0-11.8-5.9-11.8-13.6s4.8-13.6,11.8-13.6c6.7,0,11.8,5.3,11.8,13.6C603.2,82.8,597.9,88.3,591.4,88.3z"/>
	<path class="st1" d="M683.4,44.6h-9c-3.2,0-5.1,2-5.1,5.4v22c0,5.8-3.1,9.8-8.3,9.8c-5.1,0-8.2-4-8.2-9.7V61.2
		c0-11.5-4.3-17.6-14.4-17.6c-2.8,0-6.6,0.6-10.8,2.8c-2.4,1.2-2.9,2.2-2.2,5.1l1.5,7.8c0.7,2.8,1.8,3.4,2.9,3.3
		c1.2-0.1,2.5-1.1,3.6-1.1c0.7,0,1.2,0.6,1.2,1.7v12.4c0,13.7,8.8,23.5,21.8,23.5c6.3,0,11.1-2.5,14.5-6.4v7.8
		c0,7.9-6.5,11.3-13.3,11.3c-6.7,0-12.9-3.5-16.1-7c-2.2-2.1-3.7-1.3-5,0.1l-4.5,5.8c-2,2.5-1.3,3.9,0.1,5.3
		c5.4,6.1,13.8,10.5,25.2,10.5c17.5,0,31-9.8,31-29.9V50C688.5,46.6,686.6,44.6,683.4,44.6z"/>
	<path class="st1" d="M195.5,104.9h9c3.3,0,5.2-2,5.2-5.6V45c0,0,13.7,0,17,0s5.2-2,5.2-5.6s0-5.8,0-5.8c0-3.7-1.9-5.6-5.2-5.6
		h-53.3c-3.3,0-5.2,1.9-5.2,5.6v5.8c0,3.5,1.9,5.6,5.2,5.6h17v54.4C190.3,102.9,192.2,104.9,195.5,104.9z"/>
</g>
<g>
	<path class="st2" d="M138.7,75.7V45.2c0-14.6-16-23.5-28.4-15.9L64.8,57.2C57.1,62,52.4,70.3,52.4,79.4V110
		c0,14.6,16,23.5,28.4,15.9L126.3,98C134.1,93.1,138.7,84.8,138.7,75.7z"/>
</g>
</svg>
